<svg xmlns="http://www.w3.org/2000/svg" width="920" height="430" viewBox="0 0 920 430">
<style>
.title{font:700 20px -apple-system,BlinkMacSystemFont,Segoe UI,Roboto,Helvetica,Arial,sans-serif;fill:#111827;}
.axis{font:12px -apple-system,BlinkMacSystemFont,Segoe UI,Roboto,Helvetica,Arial,sans-serif;fill:#374151;}
.tick{font:11px -apple-system,BlinkMacSystemFont,Segoe UI,Roboto,Helvetica,Arial,sans-serif;fill:#6b7280;}
.legend{font:12px -apple-system,BlinkMacSystemFont,Segoe UI,Roboto,Helvetica,Arial,sans-serif;fill:#111827;}
.value{font:11px -apple-system,BlinkMacSystemFont,Segoe UI,Roboto,Helvetica,Arial,sans-serif;fill:#111827;}
</style>
<rect x="0" y="0" width="100%" height="100%" fill="#ffffff"/>
<text class="title" x="80" y="32">Network I/O p95 Latency (ms)</text>
<line x1="80" y1="350.00" x2="890" y2="350.00" stroke="#d1d5db" stroke-width="1"/>
<text class="tick" x="70" y="354.00" text-anchor="end">0</text>
<line x1="80" y1="291.00" x2="890" y2="291.00" stroke="#e5e7eb" stroke-width="1"/>
<text class="tick" x="70" y="295.00" text-anchor="end">3</text>
<line x1="80" y1="232.00" x2="890" y2="232.00" stroke="#e5e7eb" stroke-width="1"/>
<text class="tick" x="70" y="236.00" text-anchor="end">6</text>
<line x1="80" y1="173.00" x2="890" y2="173.00" stroke="#e5e7eb" stroke-width="1"/>
<text class="tick" x="70" y="177.00" text-anchor="end">10</text>
<line x1="80" y1="114.00" x2="890" y2="114.00" stroke="#e5e7eb" stroke-width="1"/>
<text class="tick" x="70" y="118.00" text-anchor="end">13</text>
<line x1="80" y1="55.00" x2="890" y2="55.00" stroke="#e5e7eb" stroke-width="1"/>
<text class="tick" x="70" y="59.00" text-anchor="end">16</text>
<line x1="80" y1="55" x2="80" y2="350" stroke="#374151" stroke-width="1.2"/>
<line x1="80" y1="350" x2="890" y2="350" stroke="#374151" stroke-width="1.2"/>
<rect x="139.40" y="209.61" width="64.80" height="140.39" rx="2" fill="#2563eb"/>
<rect x="225.80" y="100.65" width="64.80" height="249.35" rx="2" fill="#f97316"/>
<text class="value" x="171.80" y="203.61" text-anchor="middle">7.61</text>
<text class="value" x="258.20" y="94.65" text-anchor="middle">13.52</text>
<text class="axis" x="215.00" y="372" text-anchor="middle">Round 1</text>
<rect x="409.40" y="232.40" width="64.80" height="117.60" rx="2" fill="#2563eb"/>
<rect x="495.80" y="86.96" width="64.80" height="263.04" rx="2" fill="#f97316"/>
<text class="value" x="441.80" y="226.40" text-anchor="middle">6.38</text>
<text class="value" x="528.20" y="80.96" text-anchor="middle">14.27</text>
<text class="axis" x="485.00" y="372" text-anchor="middle">Round 2</text>
<rect x="679.40" y="237.92" width="64.80" height="112.08" rx="2" fill="#2563eb"/>
<rect x="765.80" y="90.40" width="64.80" height="259.60" rx="2" fill="#f97316"/>
<text class="value" x="711.80" y="231.92" text-anchor="middle">6.08</text>
<text class="value" x="798.20" y="84.40" text-anchor="middle">14.08</text>
<text class="axis" x="755.00" y="372" text-anchor="middle">Round 3</text>
<rect x="640" y="39" width="12" height="12" fill="#2563eb"/>
<text class="legend" x="658" y="50">async-pykka</text>
<rect x="760" y="39" width="12" height="12" fill="#f97316"/>
<text class="legend" x="778" y="50">pykka</text>
<text class="axis" x="80" y="410">Lower is better</text>
</svg>