<svg xmlns="http://www.w3.org/2000/svg" width="920" height="430" viewBox="0 0 920 430">
<style>
.title{font:700 20px -apple-system,BlinkMacSystemFont,Segoe UI,Roboto,Helvetica,Arial,sans-serif;fill:#111827;}
.axis{font:12px -apple-system,BlinkMacSystemFont,Segoe UI,Roboto,Helvetica,Arial,sans-serif;fill:#374151;}
.tick{font:11px -apple-system,BlinkMacSystemFont,Segoe UI,Roboto,Helvetica,Arial,sans-serif;fill:#6b7280;}
.legend{font:12px -apple-system,BlinkMacSystemFont,Segoe UI,Roboto,Helvetica,Arial,sans-serif;fill:#111827;}
.value{font:11px -apple-system,BlinkMacSystemFont,Segoe UI,Roboto,Helvetica,Arial,sans-serif;fill:#111827;}
</style>
<rect x="0" y="0" width="100%" height="100%" fill="#ffffff"/>
<text class="title" x="80" y="32">Network I/O Throughput (req/s)</text>
<line x1="80" y1="350.00" x2="890" y2="350.00" stroke="#d1d5db" stroke-width="1"/>
<text class="tick" x="70" y="354.00" text-anchor="end">0</text>
<line x1="80" y1="291.00" x2="890" y2="291.00" stroke="#e5e7eb" stroke-width="1"/>
<text class="tick" x="70" y="295.00" text-anchor="end">6400</text>
<line x1="80" y1="232.00" x2="890" y2="232.00" stroke="#e5e7eb" stroke-width="1"/>
<text class="tick" x="70" y="236.00" text-anchor="end">12800</text>
<line x1="80" y1="173.00" x2="890" y2="173.00" stroke="#e5e7eb" stroke-width="1"/>
<text class="tick" x="70" y="177.00" text-anchor="end">19200</text>
<line x1="80" y1="114.00" x2="890" y2="114.00" stroke="#e5e7eb" stroke-width="1"/>
<text class="tick" x="70" y="118.00" text-anchor="end">25600</text>
<line x1="80" y1="55.00" x2="890" y2="55.00" stroke="#e5e7eb" stroke-width="1"/>
<text class="tick" x="70" y="59.00" text-anchor="end">32000</text>
<line x1="80" y1="55" x2="80" y2="350" stroke="#374151" stroke-width="1.2"/>
<line x1="80" y1="350" x2="890" y2="350" stroke="#374151" stroke-width="1.2"/>
<rect x="139.40" y="79.13" width="64.80" height="270.87" rx="2" fill="#2563eb"/>
<rect x="225.80" y="212.24" width="64.80" height="137.76" rx="2" fill="#f97316"/>
<text class="value" x="171.80" y="73.13" text-anchor="middle">29382.72</text>
<text class="value" x="258.20" y="206.24" text-anchor="middle">14943.36</text>
<text class="axis" x="215.00" y="372" text-anchor="middle">Round 1</text>
<rect x="409.40" y="71.49" width="64.80" height="278.51" rx="2" fill="#2563eb"/>
<rect x="495.80" y="218.07" width="64.80" height="131.93" rx="2" fill="#f97316"/>
<text class="value" x="441.80" y="65.49" text-anchor="middle">30211.33</text>
<text class="value" x="528.20" y="212.07" text-anchor="middle">14310.52</text>
<text class="axis" x="485.00" y="372" text-anchor="middle">Round 2</text>
<rect x="679.40" y="69.72" width="64.80" height="280.28" rx="2" fill="#2563eb"/>
<rect x="765.80" y="218.26" width="64.80" height="131.74" rx="2" fill="#f97316"/>
<text class="value" x="711.80" y="63.72" text-anchor="middle">30403.18</text>
<text class="value" x="798.20" y="212.26" text-anchor="middle">14290.09</text>
<text class="axis" x="755.00" y="372" text-anchor="middle">Round 3</text>
<rect x="640" y="39" width="12" height="12" fill="#2563eb"/>
<text class="legend" x="658" y="50">async-pykka</text>
<rect x="760" y="39" width="12" height="12" fill="#f97316"/>
<text class="legend" x="778" y="50">pykka</text>
<text class="axis" x="80" y="410">Higher is better</text>
</svg>